<?xml version="1.0" standalone="no"?>
<!DOCTYPE svg PUBLIC "-//W3C//DTD SVG 1.1//EN" "http://www.w3.org/Graphics/SVG/1.1/DTD/svg11.dtd" >
<!--
2013-9-30: Created.
-->
<svg>
<metadata>
Created by iconfont
</metadata>
<defs>

<font id="yo-iconfont" horiz-adv-x="1024" >
  <font-face
    font-family="yo-iconfont"
    font-weight="500"
    font-stretch="normal"
    units-per-em="1024"
    ascent="896"
    descent="-128"
  />
    <missing-glyph />
    
    <glyph glyph-name="add" unicode="&#59104;" d="M512 64a32 32 0 0 1 32 32v256h256a32 32 0 0 1 0 64h-256V672a32 32 0 0 1-64 0v-256H224a32 32 0 0 1 0-64h256v-256a32 32 0 0 1 32-32"  horiz-adv-x="1024" />

    
    <glyph glyph-name="browse" unicode="&#59114;" d="M812.896 367.104C812.16 365.056 730.816 160 504.16 160c-225.44 0-305.248 198.24-309.696 209.376-3.2 6.4-2.944 21.28 1.376 29.92C196.736 401.344 287.776 608 504.16 608c215.296 0 304.384-199.776 309.248-210.752 3.296-6.176 3.552-21.344-0.512-30.144m58.112 57.888C866.72 435.072 762.24 672 504.16 672 246.08 672 141.344 434.56 137.92 426.432c-12.704-24.896-13.056-60.896-1.984-82.752 0.96-2.496 98.048-247.68 368.224-247.68 270.144 0 367.552 245.696 367.552 246.016 11.712 24.832 10.912 61.6-0.704 82.976M568.16 344.032a64.064 64.064 0 0 0-64-64.032c-35.296 0-64 28.704-64 64.032v71.904c0 35.328 28.704 64.064 64 64.064s64-28.736 64-64.064v-71.904z m-64 199.968c-70.592 0-128-57.44-128-128.064v-71.904a128.16 128.16 0 0 1 128-128.032c70.592 0 128 57.44 128 128.032v71.904a128.16 128.16 0 0 1-128 128.064z"  horiz-adv-x="1024" />

    
    <glyph glyph-name="close" unicode="&#59123;" d="M544.448 396.8l284.576 284.576a32 32 0 0 1-45.248 45.248L499.2 442.048 214.624 726.624a32 32 0 0 1-45.248-45.248l284.576-284.576-284.576-284.576a32 32 0 0 1 45.248-45.248l284.576 284.576 284.576-284.576a31.904 31.904 0 0 1 45.248 0 32 32 0 0 1 0 45.248L544.448 396.8z"  horiz-adv-x="1024" />

    
    <glyph glyph-name="document" unicode="&#59124;" d="M224 64.064V703.904L223.808 704H576v-159.936c0-35.328 28.736-64.064 64.064-64.064h159.712c0.032-0.512 0.224-1.184 0.224-1.664L800.256 64 224 64.064zM757.664 544L640 544.064V671.872L757.664 544z m76.064 11.872l-163.872 178.08C651.712 753.664 619.264 768 592.672 768H223.808A64.032 64.032 0 0 1 160 703.904v-639.84A64 64 0 0 1 223.744 0h576.512A64 64 0 0 1 864 64.128V478.336c0 25.856-12.736 58.464-30.272 77.536zM640 384h-256a32 32 0 0 1 0-64h256a32 32 0 0 1 0 64M640 224h-256a32 32 0 0 1 0-64h256a32 32 0 0 1 0 64"  horiz-adv-x="1024" />

    
    <glyph glyph-name="enter" unicode="&#59143;" d="M693.792 397.76l-320 297.664a32 32 0 0 1-43.584-46.848l295.36-274.752-295.84-286.848a31.968 31.968 0 1 1 44.544-45.92l320 310.272a31.968 31.968 0 0 1-0.48 46.4"  horiz-adv-x="1024" />

    
    <glyph glyph-name="refresh" unicode="&#59195;" d="M832 384a32 32 0 0 1-32-32c0-158.784-129.216-288-288-288s-288 129.216-288 288 129.216 288 288 288c66.208 0 129.536-22.752 180.608-64H608a32 32 0 0 1 0-64h160a32 32 0 0 1 32 32V704a32 32 0 0 1-64 0v-80.96A350.464 350.464 0 0 1 512 704C317.92 704 160 546.08 160 352s157.92-352 352-352 352 157.92 352 352a32 32 0 0 1-32 32"  horiz-adv-x="1024" />

    
    <glyph glyph-name="return" unicode="&#59198;" d="M694.272 86.976l-295.808 286.848 295.36 274.752a32 32 0 0 1-43.616 46.848l-320-297.696a32 32 0 0 1-0.512-46.4l320-310.304a32.032 32.032 0 0 1 44.576 45.952"  horiz-adv-x="1024" />

    
    <glyph glyph-name="right" unicode="&#59169;" d="M822.464 630.656a28.256 28.256 0 0 1-43.072-1.312l-352.96-417.664-181.92 212.992a28.288 28.288 0 0 1-43.104 1.088 37.12 37.12 0 0 1-0.96-48.256l204.096-238.944c5.76-6.752 13.696-10.56 22.016-10.56h0.096a29.088 29.088 0 0 1 22.048 10.656L823.68 582.4c11.52 13.728 11.008 35.328-1.216 48.256"  horiz-adv-x="1024" />

    
    <glyph glyph-name="setup" unicode="&#59203;" d="M825.312 329.184a127.04 127.04 0 0 1-91.616-62.624 127.232 127.232 0 0 1-8.448-110.56 318.976 318.976 0 0 0-113.216-65.472A127.072 127.072 0 0 1 512 138.56a127.2 127.2 0 0 1-100.064-48 319.232 319.232 0 0 0-113.216 65.44 127.232 127.232 0 0 1-8.416 110.56 127.04 127.04 0 0 1-91.648 62.624 323.232 323.232 0 0 0 0 130.784 127.104 127.104 0 0 1 91.648 62.592 127.296 127.296 0 0 1 8.416 110.592 318.976 318.976 0 0 0 113.216 65.472A127.232 127.232 0 0 1 512 650.56c39.712 0 76.064 17.92 100.032 48.064a318.72 318.72 0 0 0 113.216-65.472 127.328 127.328 0 0 1 8.448-110.592 127.104 127.104 0 0 1 91.616-62.592 321.536 321.536 0 0 0 0-130.784m56.16 170.304a31.776 31.776 0 0 1-32.832 23.2 63.584 63.584 0 0 0-59.52 31.872 63.744 63.744 0 0 0 2.112 67.52 32 32 0 0 1-3.68 39.936 383.392 383.392 0 0 1-181.696 104.992 31.968 31.968 0 0 1-36.48-16.832A63.68 63.68 0 0 0 512 714.56a63.68 63.68 0 0 0-57.376 35.616 32 32 0 0 1-36.48 16.832 383.264 383.264 0 0 1-181.696-104.96 32 32 0 0 1-3.712-40 63.68 63.68 0 0 0 2.112-67.488 63.68 63.68 0 0 0-59.52-31.872 31.52 31.52 0 0 1-32.8-23.2A383.136 383.136 0 0 1 128 394.56c0-35.648 4.864-70.944 14.528-104.896a31.904 31.904 0 0 1 32.8-23.2 64.032 64.032 0 0 0 59.52-31.904c12.256-21.184 11.456-47.04-2.112-67.456a32 32 0 0 1 3.712-39.968 382.88 382.88 0 0 1 181.696-104.96 31.936 31.936 0 0 1 36.48 16.8A63.648 63.648 0 0 0 512 74.56c24.512 0 46.496-13.632 57.376-35.584a32 32 0 0 1 36.48-16.832 383.04 383.04 0 0 1 181.696 104.992 32 32 0 0 1 3.68 40 63.68 63.68 0 0 0-2.112 67.424 63.136 63.136 0 0 0 59.52 31.904c15.04-0.896 28.704 8.736 32.832 23.2A384.64 384.64 0 0 1 896 394.56c0 35.648-4.896 70.944-14.528 104.96M512 298.56c-52.928 0-96 43.104-96 96 0 52.96 43.072 96 96 96s96-43.04 96-96c0-52.896-43.072-96-96-96m0 256c-88.224 0-160-71.744-160-160 0-88.224 71.776-160 160-160s160 71.808 160 160c0 88.256-71.776 160-160 160"  horiz-adv-x="1024" />

    
    <glyph glyph-name="trash" unicode="&#59218;" d="M736 543.968L736.096 96h-0.128L288 96.032 288.032 544 736 543.968zM384 672h256v-64h-256V672z m448-64h-128V693.376C704 713.952 687.232 736 640.16 736h-256.32C336.768 736 320 713.952 320 693.376V608H192a32 32 0 1 1 0-64h32V96.032C224 60.704 252.704 32 288.032 32h447.936A64.064 64.064 0 0 1 800 96.032V544h32a32 32 0 1 1 0 64zM608 205.44a32 32 0 0 1 32 32V448a32 32 0 1 1-64 0v-210.56a32 32 0 0 1 32-32M416 205.44a32 32 0 0 1 32 32V448a32 32 0 1 1-64 0v-210.56a32 32 0 0 1 32-32"  horiz-adv-x="1024" />

    
    <glyph glyph-name="search" unicode="&#59201;" d="M192 416a256 256 0 1 0 512 0 256 256 0 0 0-512 0m631.776-362.496l-143.2 143.168A318.464 318.464 0 0 1 768 416c0 176.736-143.264 320-320 320S128 592.736 128 416s143.264-320 320-320a318.016 318.016 0 0 1 184.16 58.592l146.336-146.368c12.512-12.48 32.768-12.48 45.28 0 12.48 12.512 12.48 32.768 0 45.28"  horiz-adv-x="1024" />

    
    <glyph glyph-name="packup" unicode="&#59232;" d="M793.024 185.728a32 32 0 1 1 45.952 44.544l-310.304 320a32 32 0 0 1-46.4-0.48l-297.696-320a32 32 0 0 1 46.848-43.584l274.752 295.328 286.848-295.808z"  horiz-adv-x="1024" />

    
    <glyph glyph-name="unfold" unicode="&#59233;" d="M231.424 549.792a32 32 0 0 1-46.848-43.584l297.696-320a32 32 0 0 1 46.4-0.48l310.304 320a32 32 0 1 1-45.952 44.544l-286.848-295.808-274.752 295.36z"  horiz-adv-x="1024" />

    
    <glyph glyph-name="calendar" unicode="&#58902;" d="M608 736H416c-19.2 0-32 12.8-32 32s12.8 32 32 32h192c19.2 0 32-12.8 32-32s-12.8-32-32-32zM960 800h-96c-16 0-32-16-32-32s16-32 32-32h96v-160H64V736h96c16 0 32 16 32 32s-16 32-32 32H64c-35.2 0-64-28.8-64-64v-800c0-35.2 28.8-64 64-64h896c35.2 0 64 28.8 64 64V736c0 35.2-28.8 64-64 64z m0-864H64V512h896v-576zM288 672c-19.2 0-32 12.8-32 32V864c0 19.2 12.8 32 32 32s32-12.8 32-32v-160c0-19.2-12.8-32-32-32z m448 0c-19.2 0-32 12.8-32 32V864c0 19.2 12.8 32 32 32s32-12.8 32-32v-160c0-19.2-12.8-32-32-32zM288 256h-64c-19.2 0-32 12.8-32 32s12.8 32 32 32h64c19.2 0 32-12.8 32-32s-12.8-32-32-32z m256 0h-64c-19.2 0-32 12.8-32 32s12.8 32 32 32h64c19.2 0 32-12.8 32-32s-12.8-32-32-32z m256 0h-64c-19.2 0-32 12.8-32 32s12.8 32 32 32h64c19.2 0 32-12.8 32-32s-12.8-32-32-32zM288 64h-64c-19.2 0-32 12.8-32 32s12.8 32 32 32h64c19.2 0 32-12.8 32-32s-12.8-32-32-32z m256 0h-64c-19.2 0-32 12.8-32 32s12.8 32 32 32h64c19.2 0 32-12.8 32-32s-12.8-32-32-32z m256 0h-64c-19.2 0-32 12.8-32 32s12.8 32 32 32h64c19.2 0 32-12.8 32-32s-12.8-32-32-32z"  horiz-adv-x="1024" />

    
    <glyph glyph-name="edit" unicode="&#58903;" d="M925.013 11.947H102.4c-17.067 0-30.72-13.654-30.72-30.72s13.653-30.72 30.72-30.72h826.027c17.066 0 30.72 13.653 30.72 30.72-3.414 13.653-17.067 30.72-34.134 30.72z m-826.026 92.16H245.76c6.827 0 17.067 3.413 20.48 10.24L771.413 619.52c13.654 13.653 13.654 30.72 0 44.373L628.053 810.667c-13.653 13.653-30.72 13.653-44.373 0l-102.4-102.4L78.507 305.493c-6.827-6.826-10.24-13.653-10.24-20.48V138.24c0-6.827 3.413-17.067 10.24-23.893 3.413-6.827 13.653-10.24 20.48-10.24zM604.16 745.813l102.4-102.4-58.027-58.026-102.4 102.4 58.027 58.026zM133.12 271.36l372.053 372.053 102.4-102.4L235.52 168.96h-102.4v102.4z"  horiz-adv-x="1024" />

    
    <glyph glyph-name="save" unicode="&#58904;" d="M770.6 734h-502c-41.4 0-75-33.6-75-75v-573c0-41.4 33.6-75 75-75h502c41.4 0 75 33.6 75 75V659c0 41.4-33.6 75-75 75z m-93.1-52v-186c0-13.8-11.2-25-25-25H386.8c-13.8 0-25 11.2-25 25V682h315.7z m118.1-595.9c0-13.8-11.2-25-25-25h-502c-13.8 0-25 11.2-25 25V659c0 13.8 11.2 25 25 25h43.1v-188c0-41.4 33.6-75 75-75h265.7c41.4 0 75 33.6 75 75V684h43.1c13.8 0 25-11.2 25-25v-572.9zM606.8 509.8c13.8 0 25 11.2 25 25v85c0 13.8-11.2 25-25 25s-25-11.2-25-25v-85c0-13.8 11.2-25 25-25z"  horiz-adv-x="1024" />

    
    <glyph glyph-name="print" unicode="&#58905;" d="M342.2 446.2h-60c-8.3 0-15 6.7-15 15s6.7 15 15 15h60c8.3 0 15-6.7 15-15s-6.8-15-15-15z m395-77h-455c-8.3 0-15 6.7-15 15s6.7 15 15 15h455c8.3 0 15-6.7 15-15s-6.7-15-15-15z m-271.4 76.6h-60c-8.3 0-15 6.7-15 15s6.7 15 15 15h60c8.3 0 15-6.7 15-15s-6.7-15-15-15zM773.3 563.4h-12.6V676.8c0 46.9-38.1 85-85 85h-325c-46.9 0-85-38.1-85-85v-113.4h-12.6c-46.9 0-85-38.1-85-85v-250.1c0-46.9 38.1-85 85-85h12.6v-45c0-46.9 38.1-85 85-85h325c46.9 0 85 38.1 85 85v45h12.6c46.9 0 85 38.1 85 85V478.4c0 46.8-38.2 85-85 85zM315.7 676.8c0 19.3 15.7 35 35 35h325c19.3 0 35-15.7 35-35v-112.3h-395V676.8z m395-578.5c0-19.3-15.7-35-35-35h-325c-19.3 0-35 15.7-35 35V235.5c0 19.3 15.7 35 35 35h325c19.3 0 35-15.7 35-35v-137.2z m97.6 130c0-19.3-15.7-35-35-35h-12.6v42.3c0 46.9-38.1 85-85 85h-325c-46.9 0-85-38.1-85-85v-42.3h-12.6c-19.3 0-35 15.7-35 35V478.4c0 19.3 15.7 35 35 35h520.1c19.3 0 35-15.7 35-35v-250.1z"  horiz-adv-x="1024" />

    
    <glyph glyph-name="back" unicode="&#58906;" d="M850.8 409.4l-636.5 0.1L420.9 650c9 10.5 7.8 26.3-2.7 35.3-10.5 9-26.3 7.8-35.3-2.7l-241.2-281c-8.1-9.4-8-23.2 0-32.6L383 88.7c4.9-5.7 11.9-8.7 19-8.7 5.8 0 11.6 2 16.3 6 10.5 9 11.6 24.8 2.6 35.3l-205 238.2 634.9-0.1c13.8 0 25 11.2 25 25s-11.2 25-25 25z"  horiz-adv-x="1024" />

    
    <glyph glyph-name="export" unicode="&#58907;" d="M924.882 280.776v-257.51c0-33.695-28.17-51.334-58.573-51.334H290.427c-27.663 0-67.354-6.487-92.815 6.989-25.222 13.348-25.36 39.87-25.36 64.246V280.776c0 33.013-51.2 33.013-51.2 0v-257.51c0-57.565 46.736-100.035 102.4-102.534 115.523-5.186 232.458 0 348.073 0h214.533c37.09 0 78.3-4.664 114.842 3.661 84.72 19.297 75.182 112.261 75.182 177.884V280.776c0 33.013-51.2 33.013-51.2 0zM271.063 481.469l259.891 259.897c9.861 9.866 26.343 9.866 36.199 0L826.06 482.468c23.367-23.363-12.836-59.571-36.199-36.204L530.954 705.167h36.199L307.267 445.261c-23.363-23.363-59.572 12.84-36.204 36.208zM522.24 220.042l1.449 478.695c0.102 33.008 51.302 33.019 51.2 0l-1.449-478.695c-0.102-33.014-51.302-33.024-51.2 0z"  horiz-adv-x="1024" />

    
    <glyph glyph-name="Import" unicode="&#58908;" d="M924.882 280.776v-257.51c0-33.695-28.17-51.334-58.573-51.334H290.427c-27.663 0-67.354-6.487-92.815 6.989-25.222 13.348-25.36 39.87-25.36 64.246V280.776c0 33.013-51.2 33.013-51.2 0v-257.51c0-57.565 46.736-100.035 102.4-102.534 115.523-5.186 232.458 0 348.073 0h214.533c37.09 0 78.3-4.664 114.842 3.661 84.72 19.297 75.182 112.261 75.182 177.884V280.776c0 33.013-51.2 33.013-51.2 0zM271.063 462.572l259.891-259.897c9.861-9.866 26.343-9.866 36.199 0L826.06 461.573c23.367 23.363-12.836 59.571-36.199 36.204L530.954 238.874h36.199L307.267 498.775c-23.363 23.368-59.572-12.836-36.204-36.203zM522.24 723.999l1.449-478.695c0.102-33.008 51.302-33.019 51.2 0L573.44 724c-0.102 33.013-51.302 33.024-51.2 0z"  horiz-adv-x="1024" />

    
    <glyph glyph-name="check" unicode="&#58909;" d="M812 277.5H692c-6.9 4.8-13.4 10.3-19.3 16.4-24.5 25.2-26 46.8-25.5 54.9l0.1 5.6v0.2c0 2.4 3.9 13.9 13.7 30.6 3.7 6.3 7.6 12.5 11.7 18.6 8.9 13.5 18.6 26.7 28.6 39.3 35 41.7 54.2 94.8 54.2 149.4 0 127.8-103 232.8-234.5 239h-17.9c-132.1-6.2-235.7-111.2-235.7-239 0.1-54.9 19.5-108.2 54.6-150.2l1.8-2.3c9.6-12.2 18.7-24.8 27.4-37.7 17.5-26.6 24.6-44.4 24.4-47.6v-5.7c0.5-8-0.9-29.2-24.2-54l-1.4-1.4c-5.5-5.7-11.9-11.2-19.2-16.2H211.2c-79.9 0.1-115.5-31.2-115.5-101.4v-156.2c0-22.1 8.6-42.9 24.3-58.6 15.7-15.5 36.4-24.2 58.4-24.2l666.2 1.4c45.6 0.2 82.5 37.1 82.5 82.7V176c0.1 70.2-35.4 101.6-115.1 101.5zM156.9 19.8V175.9c0 18.9 2.4 27.8 8.9 32.9 7 5.4 19.8 7.6 45.4 7.6h138l7.4 4.8c13.6 8.5 26.2 18.6 37.5 30 39.8 41 43.9 80.9 42.8 101.3 0.8 20.9-9.6 46-34.5 83.9a630.37 630.37 0 0 1-33.7 46c-25.7 31-39.8 70-39.9 110.3 0 95 77.3 173.1 175.9 177.8h14.8c98-4.7 174.7-82.7 174.7-177.7 0-40.4-14.3-79.5-40.2-110.5-11.4-14.3-22.3-29.2-32.4-44.4-4.7-7.1-9.2-14.4-13.5-21.8-16-27.6-22.6-46.6-22-63.6-1.1-20.3 3-60.2 42.7-101.2 11.3-11.5 23.9-21.6 37.5-30.2l7.6-4.8h138.5c49 0 53.6-7.1 53.6-40.3v-154.8c0-5.7-2.2-11.1-6.3-15.2-4-4-9.5-6.3-15.2-6.3l-666.2-1.4c-5.7 0-11.2 2.2-15.2 6.3-3.9 3.9-6.1 9.4-6.2 15.2z m0 0M351 128.4h321.7v-61.3H351z"  horiz-adv-x="1024" />

    
    <glyph glyph-name="send" unicode="&#58911;" d="M1007.4 879.5c-7.2 7.2-18 9.4-27.3 5.4l-956-412.6c-8.9-3.8-14.8-12.3-15-22-0.3-9.7 5.1-18.3 13.7-22.6l354.6-177.4 180.9-358.9c4.2-8.4 12.8-9.4 22.1-9.4h0.8c9.6 0 18.2 1.9 22 10.8l409.5 959.3c4 9.4 1.9 20.2-5.3 27.4zM92.8 447.3L913.2 801.5 401.3 292.1 92.8 447.3z m485.7-489.9L419.5 275 929 782 578.5-42.6z"  horiz-adv-x="1024" />

    
    <glyph glyph-name="nullify" unicode="&#58912;" d="M838.6 516.6c-17.7 43.7-43.8 83-77.4 116.6-33.6 33.6-72.9 59.7-116.6 77.4-42.2 17.1-86.8 25.8-132.6 25.8s-90.4-8.7-132.6-25.8c-43.7-17.7-83-43.8-116.6-77.4s-59.7-72.9-77.4-116.6c-17.1-42.2-25.8-86.8-25.8-132.6s8.7-90.4 25.8-132.6c17.7-43.7 43.8-83 77.4-116.6 33.6-33.6 72.9-59.7 116.6-77.4 42.2-17.1 86.8-25.8 132.6-25.8s90.4 8.7 132.6 25.8c43.7 17.7 83 43.8 116.6 77.4 33.6 33.6 59.7 72.9 77.4 116.6 17.1 42.2 25.8 86.8 25.8 132.6s-8.7 90.4-25.8 132.6z m-533.4 74.2c55.3 55.2 128.7 85.6 206.8 85.6 68 0 132.5-23.1 184.5-65.5L285.1 199.5c-42.4 52-65.5 116.5-65.5 184.5 0 78.1 30.4 151.5 85.6 206.8z m413.6-413.6C612 70.4 442.3 63.6 327.6 157.1l411.3 411.4c93.4-114.8 86.7-284.4-20.1-391.3z"  horiz-adv-x="1024" />

    
    <glyph glyph-name="fill-in" unicode="&#58913;" d="M782.9 360.6c15.1 0 29.1-5.8 39.6-16.3l34.2-34.2c10.5-10.5 16.3-24.5 16.3-39.6s-5.8-29.1-16.3-39.6l-274.1-274-115.6-2.3 2.2 115.7 274.1 274.1c10.5 10.5 24.6 16.2 39.6 16.2m0 64c-30.8 0-61.5-11.7-84.9-35L414.3 105.9c-5.5-5.5-8.6-12.9-8.8-20.6l-3.8-196 195.8 4c7.7 0.2 15.1 3.3 20.6 8.8l283.8 283.8c46.7 46.7 46.7 123 0 169.7l-34.2 34.2c-23.3 23.2-54 34.8-84.8 34.8zM689.9 352.2l-45.2-45.3 166.4-166.3 45.2 45.2-166.4 166.4zM292.4-128H215c-83.8 0-152 68.2-152 152V744C63 827.8 131.2 896 215 896h530c83.8 0 152-68.2 152-152v-198.1c0-17.7-14.3-32-32-32s-32 14.3-32 32V744c0 48.5-39.5 88-88 88H215c-48.5 0-88-39.5-88-88v-720c0-48.5 39.5-88 88-88h77.4c17.7 0 32-14.3 32-32s-14.3-32-32-32zM735 576.1H223c-17.6 0-32 14.4-32 32s14.4 32 32 32h512c17.6 0 32-14.4 32-32s-14.4-32-32-32z m-192-192H223c-17.6 0-32 14.4-32 32s14.4 32 32 32h320c17.6 0 32-14.4 32-32s-14.4-32-32-32z m-161.2-192H223c-17.6 0-32 14.4-32 32s14.4 32 32 32h158.8c17.6 0 32-14.4 32-32s-14.4-32-32-32z"  horiz-adv-x="1024" />

    
    <glyph glyph-name="fee" unicode="&#58914;" d="M685.82 652.703a37.049 37.049 0 0 1-52.411 0L521.695 540.99a36.86 36.86 0 0 1-7.747-11.351 36.86 36.86 0 0 1-7.747 11.351L394.283 652.907a37.049 37.049 0 0 1-52.412 0 37.049 37.049 0 0 1 0-52.412l98.284-98.284h-50.872a37.064 37.064 0 0 1-37.063-37.064 37.064 37.064 0 0 1 37.063-37.063h83.575v-52.587H389.24a37.064 37.064 0 0 1 0-74.127h83.574v-178.777a37.064 37.064 0 0 1 37.064-37.063 37.064 37.064 0 0 1 37.063 37.063V301.37h83.575a37.064 37.064 0 1 1 0 74.127h-83.575V428.07h83.575a37.064 37.064 0 0 1 37.064 37.064 37.064 37.064 0 0 1-37.064 37.063h-42.79l98.095 98.095a37.049 37.049 0 0 1 0 52.412zM512 896C229.227 896 0 666.773 0 384s229.227-512 512-512 512 229.242 512 512S794.758 896 512 896z m309.59-821.619a436.318 436.318 0 1 0 93.865 139.2 436.594 436.594 0 0 0-93.836-139.2z"  horiz-adv-x="1024" />

    


  </font>
</defs>
</svg>
